<?xml version="1.0" encoding="utf-8" standalone="no"?>
<!DOCTYPE svg PUBLIC "-//W3C//DTD SVG 1.1//EN"
  "http://www.w3.org/Graphics/SVG/1.1/DTD/svg11.dtd">
<svg xmlns:xlink="http://www.w3.org/1999/xlink" width="302.884601pt" height="280.8pt" viewBox="0 0 302.884601 280.8" xmlns="http://www.w3.org/2000/svg" version="1.1">
 <metadata>
  <rdf:RDF xmlns:dc="http://purl.org/dc/elements/1.1/" xmlns:cc="http://creativecommons.org/ns#" xmlns:rdf="http://www.w3.org/1999/02/22-rdf-syntax-ns#">
   <cc:Work>
    <dc:type rdf:resource="http://purl.org/dc/dcmitype/StillImage"/>
    <dc:date>2025-11-25T07:54:14.611812</dc:date>
    <dc:format>image/svg+xml</dc:format>
    <dc:creator>
     <cc:Agent>
      <dc:title>Matplotlib v3.6.3, https://matplotlib.org/</dc:title>
     </cc:Agent>
    </dc:creator>
   </cc:Work>
  </rdf:RDF>
 </metadata>
 <defs>
  <style type="text/css">*{stroke-linejoin: round; stroke-linecap: butt}</style>
 </defs>
 <g id="figure_1">
  <g id="patch_1">
   <path d="M 0 280.8 
L 302.884601 280.8 
L 302.884601 0 
L 0 0 
z
" style="fill: #ffffff"/>
  </g>
  <g id="axes_1">
   <g id="patch_2">
    <path d="M 7.2 273.6 
L 114.338077 273.6 
L 114.338077 7.2 
L 7.2 7.2 
z
" style="fill: #ffffff"/>
   </g>
   <g id="matplotlib.axis_1">
    <g id="xtick_1"/>
    <g id="xtick_2"/>
   </g>
   <g id="matplotlib.axis_2">
    <g id="ytick_1"/>
    <g id="ytick_2"/>
    <g id="ytick_3"/>
    <g id="ytick_4"/>
    <g id="ytick_5"/>
   </g>
   <g id="LineCollection_1">
    <path d="M 11.320695 113.641071 
L 11.320695 113.641071 
" clip-path="url(#pc6d8562fe6)" style="fill: none; stroke: #000000; stroke-width: 1.5"/>
   </g>
   <g id="LineCollection_2">
    <path d="M 11.320695 45.257143 
L 93.734601 45.257143 
" clip-path="url(#pc6d8562fe6)" style="fill: none; stroke: #000000; stroke-width: 1.5"/>
   </g>
   <g id="LineCollection_3">
    <path d="M 11.320695 182.025 
L 41.975203 182.025 
" clip-path="url(#pc6d8562fe6)" style="fill: none; stroke: #000000; stroke-width: 1.5"/>
   </g>
   <g id="LineCollection_4">
    <path d="M 41.975203 128.507143 
L 72.946077 128.507143 
" clip-path="url(#pc6d8562fe6)" style="fill: none; stroke: #000000; stroke-width: 1.5"/>
   </g>
   <g id="LineCollection_5">
    <path d="M 72.946077 92.828571 
L 93.734601 92.828571 
" clip-path="url(#pc6d8562fe6)" style="fill: none; stroke: #000000; stroke-width: 1.5"/>
   </g>
   <g id="LineCollection_6">
    <path d="M 72.946077 164.185714 
L 88.54437 164.185714 
" clip-path="url(#pc6d8562fe6)" style="fill: none; stroke: #000000; stroke-width: 1.5"/>
   </g>
   <g id="LineCollection_7">
    <path d="M 88.54437 140.4 
L 93.734601 140.4 
" clip-path="url(#pc6d8562fe6)" style="fill: none; stroke: #000000; stroke-width: 1.5"/>
   </g>
   <g id="LineCollection_8">
    <path d="M 88.54437 187.971429 
L 93.734601 187.971429 
" clip-path="url(#pc6d8562fe6)" style="fill: none; stroke: #000000; stroke-width: 1.5"/>
   </g>
   <g id="LineCollection_9">
    <path d="M 41.975203 235.542857 
L 93.734601 235.542857 
" clip-path="url(#pc6d8562fe6)" style="fill: none; stroke: #000000; stroke-width: 1.5"/>
   </g>
   <g id="LineCollection_10">
    <path d="M 11.320695 182.025 
L 11.320695 45.257143 
" clip-path="url(#pc6d8562fe6)" style="fill: none; stroke: #000000; stroke-width: 1.5"/>
   </g>
   <g id="LineCollection_11">
    <path d="M 41.975203 235.542857 
L 41.975203 128.507143 
" clip-path="url(#pc6d8562fe6)" style="fill: none; stroke: #000000; stroke-width: 1.5"/>
   </g>
   <g id="LineCollection_12">
    <path d="M 72.946077 164.185714 
L 72.946077 92.828571 
" clip-path="url(#pc6d8562fe6)" style="fill: none; stroke: #000000; stroke-width: 1.5"/>
   </g>
   <g id="LineCollection_13">
    <path d="M 88.54437 187.971429 
L 88.54437 140.4 
" clip-path="url(#pc6d8562fe6)" style="fill: none; stroke: #000000; stroke-width: 1.5"/>
   </g>
   <g id="text_1">
    <!--  Otolemur_garnettii -->
    <g transform="translate(93.734601 47.877455) scale(0.1 -0.1)">
     <defs>
      <path id="DejaVuSans-20" transform="scale(0.015625)"/>
      <path id="DejaVuSans-4f" d="M 2522 4238 
Q 1834 4238 1429 3725 
Q 1025 3213 1025 2328 
Q 1025 1447 1429 934 
Q 1834 422 2522 422 
Q 3209 422 3611 934 
Q 4013 1447 4013 2328 
Q 4013 3213 3611 3725 
Q 3209 4238 2522 4238 
z
M 2522 4750 
Q 3503 4750 4090 4092 
Q 4678 3434 4678 2328 
Q 4678 1225 4090 567 
Q 3503 -91 2522 -91 
Q 1538 -91 948 565 
Q 359 1222 359 2328 
Q 359 3434 948 4092 
Q 1538 4750 2522 4750 
z
" transform="scale(0.015625)"/>
      <path id="DejaVuSans-74" d="M 1172 4494 
L 1172 3500 
L 2356 3500 
L 2356 3053 
L 1172 3053 
L 1172 1153 
Q 1172 725 1289 603 
Q 1406 481 1766 481 
L 2356 481 
L 2356 0 
L 1766 0 
Q 1100 0 847 248 
Q 594 497 594 1153 
L 594 3053 
L 172 3053 
L 172 3500 
L 594 3500 
L 594 4494 
L 1172 4494 
z
" transform="scale(0.015625)"/>
      <path id="DejaVuSans-6f" d="M 1959 3097 
Q 1497 3097 1228 2736 
Q 959 2375 959 1747 
Q 959 1119 1226 758 
Q 1494 397 1959 397 
Q 2419 397 2687 759 
Q 2956 1122 2956 1747 
Q 2956 2369 2687 2733 
Q 2419 3097 1959 3097 
z
M 1959 3584 
Q 2709 3584 3137 3096 
Q 3566 2609 3566 1747 
Q 3566 888 3137 398 
Q 2709 -91 1959 -91 
Q 1206 -91 779 398 
Q 353 888 353 1747 
Q 353 2609 779 3096 
Q 1206 3584 1959 3584 
z
" transform="scale(0.015625)"/>
      <path id="DejaVuSans-6c" d="M 603 4863 
L 1178 4863 
L 1178 0 
L 603 0 
L 603 4863 
z
" transform="scale(0.015625)"/>
      <path id="DejaVuSans-65" d="M 3597 1894 
L 3597 1613 
L 953 1613 
Q 991 1019 1311 708 
Q 1631 397 2203 397 
Q 2534 397 2845 478 
Q 3156 559 3463 722 
L 3463 178 
Q 3153 47 2828 -22 
Q 2503 -91 2169 -91 
Q 1331 -91 842 396 
Q 353 884 353 1716 
Q 353 2575 817 3079 
Q 1281 3584 2069 3584 
Q 2775 3584 3186 3129 
Q 3597 2675 3597 1894 
z
M 3022 2063 
Q 3016 2534 2758 2815 
Q 2500 3097 2075 3097 
Q 1594 3097 1305 2825 
Q 1016 2553 972 2059 
L 3022 2063 
z
" transform="scale(0.015625)"/>
      <path id="DejaVuSans-6d" d="M 3328 2828 
Q 3544 3216 3844 3400 
Q 4144 3584 4550 3584 
Q 5097 3584 5394 3201 
Q 5691 2819 5691 2113 
L 5691 0 
L 5113 0 
L 5113 2094 
Q 5113 2597 4934 2840 
Q 4756 3084 4391 3084 
Q 3944 3084 3684 2787 
Q 3425 2491 3425 1978 
L 3425 0 
L 2847 0 
L 2847 2094 
Q 2847 2600 2669 2842 
Q 2491 3084 2119 3084 
Q 1678 3084 1418 2786 
Q 1159 2488 1159 1978 
L 1159 0 
L 581 0 
L 581 3500 
L 1159 3500 
L 1159 2956 
Q 1356 3278 1631 3431 
Q 1906 3584 2284 3584 
Q 2666 3584 2933 3390 
Q 3200 3197 3328 2828 
z
" transform="scale(0.015625)"/>
      <path id="DejaVuSans-75" d="M 544 1381 
L 544 3500 
L 1119 3500 
L 1119 1403 
Q 1119 906 1312 657 
Q 1506 409 1894 409 
Q 2359 409 2629 706 
Q 2900 1003 2900 1516 
L 2900 3500 
L 3475 3500 
L 3475 0 
L 2900 0 
L 2900 538 
Q 2691 219 2414 64 
Q 2138 -91 1772 -91 
Q 1169 -91 856 284 
Q 544 659 544 1381 
z
M 1991 3584 
L 1991 3584 
z
" transform="scale(0.015625)"/>
      <path id="DejaVuSans-72" d="M 2631 2963 
Q 2534 3019 2420 3045 
Q 2306 3072 2169 3072 
Q 1681 3072 1420 2755 
Q 1159 2438 1159 1844 
L 1159 0 
L 581 0 
L 581 3500 
L 1159 3500 
L 1159 2956 
Q 1341 3275 1631 3429 
Q 1922 3584 2338 3584 
Q 2397 3584 2469 3576 
Q 2541 3569 2628 3553 
L 2631 2963 
z
" transform="scale(0.015625)"/>
      <path id="DejaVuSans-5f" d="M 3263 -1063 
L 3263 -1509 
L -63 -1509 
L -63 -1063 
L 3263 -1063 
z
" transform="scale(0.015625)"/>
      <path id="DejaVuSans-67" d="M 2906 1791 
Q 2906 2416 2648 2759 
Q 2391 3103 1925 3103 
Q 1463 3103 1205 2759 
Q 947 2416 947 1791 
Q 947 1169 1205 825 
Q 1463 481 1925 481 
Q 2391 481 2648 825 
Q 2906 1169 2906 1791 
z
M 3481 434 
Q 3481 -459 3084 -895 
Q 2688 -1331 1869 -1331 
Q 1566 -1331 1297 -1286 
Q 1028 -1241 775 -1147 
L 775 -588 
Q 1028 -725 1275 -790 
Q 1522 -856 1778 -856 
Q 2344 -856 2625 -561 
Q 2906 -266 2906 331 
L 2906 616 
Q 2728 306 2450 153 
Q 2172 0 1784 0 
Q 1141 0 747 490 
Q 353 981 353 1791 
Q 353 2603 747 3093 
Q 1141 3584 1784 3584 
Q 2172 3584 2450 3431 
Q 2728 3278 2906 2969 
L 2906 3500 
L 3481 3500 
L 3481 434 
z
" transform="scale(0.015625)"/>
      <path id="DejaVuSans-61" d="M 2194 1759 
Q 1497 1759 1228 1600 
Q 959 1441 959 1056 
Q 959 750 1161 570 
Q 1363 391 1709 391 
Q 2188 391 2477 730 
Q 2766 1069 2766 1631 
L 2766 1759 
L 2194 1759 
z
M 3341 1997 
L 3341 0 
L 2766 0 
L 2766 531 
Q 2569 213 2275 61 
Q 1981 -91 1556 -91 
Q 1019 -91 701 211 
Q 384 513 384 1019 
Q 384 1609 779 1909 
Q 1175 2209 1959 2209 
L 2766 2209 
L 2766 2266 
Q 2766 2663 2505 2880 
Q 2244 3097 1772 3097 
Q 1472 3097 1187 3025 
Q 903 2953 641 2809 
L 641 3341 
Q 956 3463 1253 3523 
Q 1550 3584 1831 3584 
Q 2591 3584 2966 3190 
Q 3341 2797 3341 1997 
z
" transform="scale(0.015625)"/>
      <path id="DejaVuSans-6e" d="M 3513 2113 
L 3513 0 
L 2938 0 
L 2938 2094 
Q 2938 2591 2744 2837 
Q 2550 3084 2163 3084 
Q 1697 3084 1428 2787 
Q 1159 2491 1159 1978 
L 1159 0 
L 581 0 
L 581 3500 
L 1159 3500 
L 1159 2956 
Q 1366 3272 1645 3428 
Q 1925 3584 2291 3584 
Q 2894 3584 3203 3211 
Q 3513 2838 3513 2113 
z
" transform="scale(0.015625)"/>
      <path id="DejaVuSans-69" d="M 603 3500 
L 1178 3500 
L 1178 0 
L 603 0 
L 603 3500 
z
M 603 4863 
L 1178 4863 
L 1178 4134 
L 603 4134 
L 603 4863 
z
" transform="scale(0.015625)"/>
     </defs>
     <use xlink:href="#DejaVuSans-20"/>
     <use xlink:href="#DejaVuSans-4f" x="31.787109"/>
     <use xlink:href="#DejaVuSans-74" x="110.498047"/>
     <use xlink:href="#DejaVuSans-6f" x="149.707031"/>
     <use xlink:href="#DejaVuSans-6c" x="210.888672"/>
     <use xlink:href="#DejaVuSans-65" x="238.671875"/>
     <use xlink:href="#DejaVuSans-6d" x="300.195312"/>
     <use xlink:href="#DejaVuSans-75" x="397.607422"/>
     <use xlink:href="#DejaVuSans-72" x="460.986328"/>
     <use xlink:href="#DejaVuSans-5f" x="502.099609"/>
     <use xlink:href="#DejaVuSans-67" x="552.099609"/>
     <use xlink:href="#DejaVuSans-61" x="615.576172"/>
     <use xlink:href="#DejaVuSans-72" x="676.855469"/>
     <use xlink:href="#DejaVuSans-6e" x="716.21875"/>
     <use xlink:href="#DejaVuSans-65" x="779.597656"/>
     <use xlink:href="#DejaVuSans-74" x="841.121094"/>
     <use xlink:href="#DejaVuSans-74" x="880.330078"/>
     <use xlink:href="#DejaVuSans-69" x="919.539062"/>
     <use xlink:href="#DejaVuSans-69" x="947.322266"/>
    </g>
   </g>
   <g id="text_2">
    <!--  Paragalago_nyasae -->
    <g transform="translate(93.734601 95.448884) scale(0.1 -0.1)">
     <defs>
      <path id="DejaVuSans-50" d="M 1259 4147 
L 1259 2394 
L 2053 2394 
Q 2494 2394 2734 2622 
Q 2975 2850 2975 3272 
Q 2975 3691 2734 3919 
Q 2494 4147 2053 4147 
L 1259 4147 
z
M 628 4666 
L 2053 4666 
Q 2838 4666 3239 4311 
Q 3641 3956 3641 3272 
Q 3641 2581 3239 2228 
Q 2838 1875 2053 1875 
L 1259 1875 
L 1259 0 
L 628 0 
L 628 4666 
z
" transform="scale(0.015625)"/>
      <path id="DejaVuSans-79" d="M 2059 -325 
Q 1816 -950 1584 -1140 
Q 1353 -1331 966 -1331 
L 506 -1331 
L 506 -850 
L 844 -850 
Q 1081 -850 1212 -737 
Q 1344 -625 1503 -206 
L 1606 56 
L 191 3500 
L 800 3500 
L 1894 763 
L 2988 3500 
L 3597 3500 
L 2059 -325 
z
" transform="scale(0.015625)"/>
      <path id="DejaVuSans-73" d="M 2834 3397 
L 2834 2853 
Q 2591 2978 2328 3040 
Q 2066 3103 1784 3103 
Q 1356 3103 1142 2972 
Q 928 2841 928 2578 
Q 928 2378 1081 2264 
Q 1234 2150 1697 2047 
L 1894 2003 
Q 2506 1872 2764 1633 
Q 3022 1394 3022 966 
Q 3022 478 2636 193 
Q 2250 -91 1575 -91 
Q 1294 -91 989 -36 
Q 684 19 347 128 
L 347 722 
Q 666 556 975 473 
Q 1284 391 1588 391 
Q 1994 391 2212 530 
Q 2431 669 2431 922 
Q 2431 1156 2273 1281 
Q 2116 1406 1581 1522 
L 1381 1569 
Q 847 1681 609 1914 
Q 372 2147 372 2553 
Q 372 3047 722 3315 
Q 1072 3584 1716 3584 
Q 2034 3584 2315 3537 
Q 2597 3491 2834 3397 
z
" transform="scale(0.015625)"/>
     </defs>
     <use xlink:href="#DejaVuSans-20"/>
     <use xlink:href="#DejaVuSans-50" x="31.787109"/>
     <use xlink:href="#DejaVuSans-61" x="87.589844"/>
     <use xlink:href="#DejaVuSans-72" x="148.869141"/>
     <use xlink:href="#DejaVuSans-61" x="189.982422"/>
     <use xlink:href="#DejaVuSans-67" x="251.261719"/>
     <use xlink:href="#DejaVuSans-61" x="314.738281"/>
     <use xlink:href="#DejaVuSans-6c" x="376.017578"/>
     <use xlink:href="#DejaVuSans-61" x="403.800781"/>
     <use xlink:href="#DejaVuSans-67" x="465.080078"/>
     <use xlink:href="#DejaVuSans-6f" x="528.556641"/>
     <use xlink:href="#DejaVuSans-5f" x="589.738281"/>
     <use xlink:href="#DejaVuSans-6e" x="639.738281"/>
     <use xlink:href="#DejaVuSans-79" x="703.117188"/>
     <use xlink:href="#DejaVuSans-61" x="762.296875"/>
     <use xlink:href="#DejaVuSans-73" x="823.576172"/>
     <use xlink:href="#DejaVuSans-61" x="875.675781"/>
     <use xlink:href="#DejaVuSans-65" x="936.955078"/>
    </g>
   </g>
   <g id="text_3">
    <!--  Paragalago_zanzibaricus -->
    <g transform="translate(93.734601 143.020312) scale(0.1 -0.1)">
     <defs>
      <path id="DejaVuSans-7a" d="M 353 3500 
L 3084 3500 
L 3084 2975 
L 922 459 
L 3084 459 
L 3084 0 
L 275 0 
L 275 525 
L 2438 3041 
L 353 3041 
L 353 3500 
z
" transform="scale(0.015625)"/>
      <path id="DejaVuSans-62" d="M 3116 1747 
Q 3116 2381 2855 2742 
Q 2594 3103 2138 3103 
Q 1681 3103 1420 2742 
Q 1159 2381 1159 1747 
Q 1159 1113 1420 752 
Q 1681 391 2138 391 
Q 2594 391 2855 752 
Q 3116 1113 3116 1747 
z
M 1159 2969 
Q 1341 3281 1617 3432 
Q 1894 3584 2278 3584 
Q 2916 3584 3314 3078 
Q 3713 2572 3713 1747 
Q 3713 922 3314 415 
Q 2916 -91 2278 -91 
Q 1894 -91 1617 61 
Q 1341 213 1159 525 
L 1159 0 
L 581 0 
L 581 4863 
L 1159 4863 
L 1159 2969 
z
" transform="scale(0.015625)"/>
      <path id="DejaVuSans-63" d="M 3122 3366 
L 3122 2828 
Q 2878 2963 2633 3030 
Q 2388 3097 2138 3097 
Q 1578 3097 1268 2742 
Q 959 2388 959 1747 
Q 959 1106 1268 751 
Q 1578 397 2138 397 
Q 2388 397 2633 464 
Q 2878 531 3122 666 
L 3122 134 
Q 2881 22 2623 -34 
Q 2366 -91 2075 -91 
Q 1284 -91 818 406 
Q 353 903 353 1747 
Q 353 2603 823 3093 
Q 1294 3584 2113 3584 
Q 2378 3584 2631 3529 
Q 2884 3475 3122 3366 
z
" transform="scale(0.015625)"/>
     </defs>
     <use xlink:href="#DejaVuSans-20"/>
     <use xlink:href="#DejaVuSans-50" x="31.787109"/>
     <use xlink:href="#DejaVuSans-61" x="87.589844"/>
     <use xlink:href="#DejaVuSans-72" x="148.869141"/>
     <use xlink:href="#DejaVuSans-61" x="189.982422"/>
     <use xlink:href="#DejaVuSans-67" x="251.261719"/>
     <use xlink:href="#DejaVuSans-61" x="314.738281"/>
     <use xlink:href="#DejaVuSans-6c" x="376.017578"/>
     <use xlink:href="#DejaVuSans-61" x="403.800781"/>
     <use xlink:href="#DejaVuSans-67" x="465.080078"/>
     <use xlink:href="#DejaVuSans-6f" x="528.556641"/>
     <use xlink:href="#DejaVuSans-5f" x="589.738281"/>
     <use xlink:href="#DejaVuSans-7a" x="639.738281"/>
     <use xlink:href="#DejaVuSans-61" x="692.228516"/>
     <use xlink:href="#DejaVuSans-6e" x="753.507812"/>
     <use xlink:href="#DejaVuSans-7a" x="816.886719"/>
     <use xlink:href="#DejaVuSans-69" x="869.376953"/>
     <use xlink:href="#DejaVuSans-62" x="897.160156"/>
     <use xlink:href="#DejaVuSans-61" x="960.636719"/>
     <use xlink:href="#DejaVuSans-72" x="1021.916016"/>
     <use xlink:href="#DejaVuSans-69" x="1063.029297"/>
     <use xlink:href="#DejaVuSans-63" x="1090.8125"/>
     <use xlink:href="#DejaVuSans-75" x="1145.792969"/>
     <use xlink:href="#DejaVuSans-73" x="1209.171875"/>
    </g>
   </g>
   <g id="text_4">
    <!--  Paragalago_zanzibaricus_udzungwensis -->
    <g transform="translate(93.734601 190.591741) scale(0.1 -0.1)">
     <defs>
      <path id="DejaVuSans-64" d="M 2906 2969 
L 2906 4863 
L 3481 4863 
L 3481 0 
L 2906 0 
L 2906 525 
Q 2725 213 2448 61 
Q 2172 -91 1784 -91 
Q 1150 -91 751 415 
Q 353 922 353 1747 
Q 353 2572 751 3078 
Q 1150 3584 1784 3584 
Q 2172 3584 2448 3432 
Q 2725 3281 2906 2969 
z
M 947 1747 
Q 947 1113 1208 752 
Q 1469 391 1925 391 
Q 2381 391 2643 752 
Q 2906 1113 2906 1747 
Q 2906 2381 2643 2742 
Q 2381 3103 1925 3103 
Q 1469 3103 1208 2742 
Q 947 2381 947 1747 
z
" transform="scale(0.015625)"/>
      <path id="DejaVuSans-77" d="M 269 3500 
L 844 3500 
L 1563 769 
L 2278 3500 
L 2956 3500 
L 3675 769 
L 4391 3500 
L 4966 3500 
L 4050 0 
L 3372 0 
L 2619 2869 
L 1863 0 
L 1184 0 
L 269 3500 
z
" transform="scale(0.015625)"/>
     </defs>
     <use xlink:href="#DejaVuSans-20"/>
     <use xlink:href="#DejaVuSans-50" x="31.787109"/>
     <use xlink:href="#DejaVuSans-61" x="87.589844"/>
     <use xlink:href="#DejaVuSans-72" x="148.869141"/>
     <use xlink:href="#DejaVuSans-61" x="189.982422"/>
     <use xlink:href="#DejaVuSans-67" x="251.261719"/>
     <use xlink:href="#DejaVuSans-61" x="314.738281"/>
     <use xlink:href="#DejaVuSans-6c" x="376.017578"/>
     <use xlink:href="#DejaVuSans-61" x="403.800781"/>
     <use xlink:href="#DejaVuSans-67" x="465.080078"/>
     <use xlink:href="#DejaVuSans-6f" x="528.556641"/>
     <use xlink:href="#DejaVuSans-5f" x="589.738281"/>
     <use xlink:href="#DejaVuSans-7a" x="639.738281"/>
     <use xlink:href="#DejaVuSans-61" x="692.228516"/>
     <use xlink:href="#DejaVuSans-6e" x="753.507812"/>
     <use xlink:href="#DejaVuSans-7a" x="816.886719"/>
     <use xlink:href="#DejaVuSans-69" x="869.376953"/>
     <use xlink:href="#DejaVuSans-62" x="897.160156"/>
     <use xlink:href="#DejaVuSans-61" x="960.636719"/>
     <use xlink:href="#DejaVuSans-72" x="1021.916016"/>
     <use xlink:href="#DejaVuSans-69" x="1063.029297"/>
     <use xlink:href="#DejaVuSans-63" x="1090.8125"/>
     <use xlink:href="#DejaVuSans-75" x="1145.792969"/>
     <use xlink:href="#DejaVuSans-73" x="1209.171875"/>
     <use xlink:href="#DejaVuSans-5f" x="1261.271484"/>
     <use xlink:href="#DejaVuSans-75" x="1311.271484"/>
     <use xlink:href="#DejaVuSans-64" x="1374.650391"/>
     <use xlink:href="#DejaVuSans-7a" x="1438.126953"/>
     <use xlink:href="#DejaVuSans-75" x="1490.617188"/>
     <use xlink:href="#DejaVuSans-6e" x="1553.996094"/>
     <use xlink:href="#DejaVuSans-67" x="1617.375"/>
     <use xlink:href="#DejaVuSans-77" x="1680.851562"/>
     <use xlink:href="#DejaVuSans-65" x="1762.638672"/>
     <use xlink:href="#DejaVuSans-6e" x="1824.162109"/>
     <use xlink:href="#DejaVuSans-73" x="1887.541016"/>
     <use xlink:href="#DejaVuSans-69" x="1939.640625"/>
     <use xlink:href="#DejaVuSans-73" x="1967.423828"/>
    </g>
   </g>
   <g id="text_5">
    <!--  Paragalago_rondoensis -->
    <g transform="translate(93.734601 238.16317) scale(0.1 -0.1)">
     <use xlink:href="#DejaVuSans-20"/>
     <use xlink:href="#DejaVuSans-50" x="31.787109"/>
     <use xlink:href="#DejaVuSans-61" x="87.589844"/>
     <use xlink:href="#DejaVuSans-72" x="148.869141"/>
     <use xlink:href="#DejaVuSans-61" x="189.982422"/>
     <use xlink:href="#DejaVuSans-67" x="251.261719"/>
     <use xlink:href="#DejaVuSans-61" x="314.738281"/>
     <use xlink:href="#DejaVuSans-6c" x="376.017578"/>
     <use xlink:href="#DejaVuSans-61" x="403.800781"/>
     <use xlink:href="#DejaVuSans-67" x="465.080078"/>
     <use xlink:href="#DejaVuSans-6f" x="528.556641"/>
     <use xlink:href="#DejaVuSans-5f" x="589.738281"/>
     <use xlink:href="#DejaVuSans-72" x="639.738281"/>
     <use xlink:href="#DejaVuSans-6f" x="678.601562"/>
     <use xlink:href="#DejaVuSans-6e" x="739.783203"/>
     <use xlink:href="#DejaVuSans-64" x="803.162109"/>
     <use xlink:href="#DejaVuSans-6f" x="866.638672"/>
     <use xlink:href="#DejaVuSans-65" x="927.820312"/>
     <use xlink:href="#DejaVuSans-6e" x="989.34375"/>
     <use xlink:href="#DejaVuSans-73" x="1052.722656"/>
     <use xlink:href="#DejaVuSans-69" x="1104.822266"/>
     <use xlink:href="#DejaVuSans-73" x="1132.605469"/>
    </g>
   </g>
  </g>
 </g>
 <defs>
  <clipPath id="pc6d8562fe6">
   <rect x="7.2" y="7.2" width="107.138077" height="266.4"/>
  </clipPath>
 </defs>
</svg>
